<svg xmlns="http://www.w3.org/2000/svg" viewBox="0 0 138.89 191.77"><defs><style>.cls-1{fill:none;}.cls-2{fill:#2d578a;}.cls-3{fill:#eca93e;}.cls-4{fill:#ff9144;}.cls-5{fill:#2e93ee;}.cls-6{fill:#f1f1f2;}.cls-7{fill:#f26a23;}.cls-8{fill:#ebeef2;}.cls-9{fill:#ffcf00;}</style></defs><g id="Layer_2" data-name="Layer 2"><g id="Layer_1-2" data-name="Layer 1"><g id="HG-Snappy"><path class="cls-1" d="M112.63,93.5a1.23,1.23,0,0,1,0,.2c0,.3.08.58.11.89l0,.23h0c.23,2.13.41,4.44.51,6.88,2.33-3.83,4.19-7,4.19-7-1.86-1-3.55-2.06-5.09-3q.12.92.24,1.89Z"/><path class="cls-1" d="M62.43,105.06c.4.67.76,1.19,1.1,1.66a21.29,21.29,0,0,0-1.15-5.88c-1.27-3.84-3.3-7.42-5.08-11.1-2.33,1.77-4,2.82-4,2.82C56.11,94.37,59.73,100.55,62.43,105.06Z"/><path class="cls-2" d="M101,177.13a10,10,0,0,1,4.77,8.93h0c.76,0,1.5,0,2.24,0h.62s0,0,0,0A12.4,12.4,0,0,0,101,177.13Z"/><path class="cls-2" d="M107.52,175.66c4,3,5.23,6.31,4.69,9.86v0a17,17,0,0,0,3-1l0-.05A12.31,12.31,0,0,0,107.52,175.66Z"/><path class="cls-2" d="M111.52,125.52A21.45,21.45,0,0,0,116,123.6s3.39,4.15.92,7.66c0,0,4.46-2.61,1.49-8.62a35.58,35.58,0,0,0,2.81-4.08l-.13-.4S113.44,124.45,111.52,125.52Z"/><path class="cls-3" d="M103.2,144.82h-.06a40.65,40.65,0,0,1-20.43-8.36,28.27,28.27,0,0,0,18.07,11.8h0A28.77,28.77,0,0,0,103.2,144.82Z"/><path class="cls-3" d="M73.15,152.05c-.13.46-.27.9-.4,1.34A47,47,0,0,0,81,162.52l.07.06a26.36,26.36,0,0,0,4.87-1.65l-.09,0A39.31,39.31,0,0,1,73.15,152.05Z"/><path class="cls-3" d="M45,141.63a29.62,29.62,0,0,0-2.37,3.22v0l1.25,1.47.58.69a.22.22,0,0,1,0-.08A8.68,8.68,0,0,1,45,141.63Z"/><path class="cls-3" d="M54.13,147.61a29.71,29.71,0,0,0-2.88,5.85L53,154.89l1,.8s0-.06,0-.09C53.37,152.55,53.09,149.38,54.13,147.61Z"/><path class="cls-4" d="M36.86,133.73a21.08,21.08,0,0,0-2.36,2.17l-.07.06,2,2s0-.06,0-.09A16.75,16.75,0,0,1,36.86,133.73Z"/><path class="cls-3" d="M88.2,121.75a41.19,41.19,0,0,1,23.79,0h0c.2-1.12.38-2.23.54-3.3h0C96.94,114.75,88.2,121.75,88.2,121.75Z"/><path class="cls-3" d="M112.65,93.7a1.23,1.23,0,0,0,0-.2h0l.09.63C112.68,94,112.67,93.84,112.65,93.7Z"/><path class="cls-3" d="M108.73,93.58c-14,.81-21.15,7.55-21.15,7.55A40.46,40.46,0,0,1,113,97.34c-.07-.88-.16-1.7-.25-2.53A33.13,33.13,0,0,1,108.73,93.58Z"/><path class="cls-3" d="M82,81.47A39.71,39.71,0,0,1,86.64,79l-1-1A12.82,12.82,0,0,0,82,81.47Z"/><path class="cls-3" d="M112.76,94.59c0-.15-.05-.31-.06-.46l-.09-.63c-.3-2.46-.69-4.9-1.15-7.33-5.21-.63-15.11-5.65-35.8-21.21-1.29-1-2.48-1.91-3.62-2.84,0,.15,0,.31,0,.46A113.3,113.3,0,0,0,85.61,78l1,1c6.63,6.15,14.36,11.78,22.09,14.59a33.13,33.13,0,0,0,4,1.23h0Z"/><path class="cls-2" d="M60.18,180.68c-4.07,2.32-5.42,6.26-5.77,10.83,0,0,0,.08,0,.13.89-.14,1.78-.29,2.65-.49,0,0,0-.07,0-.1A11.48,11.48,0,0,1,60.18,180.68Z"/><path class="cls-2" d="M51.36,180.08A11.94,11.94,0,0,0,45.7,190s0,.07,0,.11a4.86,4.86,0,0,0,.69.6h0a4.86,4.86,0,0,0,.93.62l.14.06a5.92,5.92,0,0,0,.9.38s0,0,0-.06A13.15,13.15,0,0,1,51.36,180.08Z"/><path class="cls-2" d="M69.5,112.58c5.31,5.67-1.8,16.6-1.8,16.6-2.86,2-8.51,1.7-8.51,1.7-3.66-1.82-4.7-6-4.9-9.49l-.14,0s-1.29,7.47,3.79,10c4.29,2.23,9.55,2.23,12.19-1,3.55-4.36,8.63-13-4.65-21.56A29.81,29.81,0,0,1,69.5,112.58Z"/><path class="cls-2" d="M57.37,89.69c1,2,1.68,3.32,1.73,3.5S69.05,80.9,68.94,77C66.46,82.15,61.13,86.84,57.37,89.69Z"/><path class="cls-2" d="M58.19,120.81c-1.5,7,2.7,7.75,2.7,7.75-2.61-2.77-.38-7.23-.38-7.23a8.41,8.41,0,0,0,4.66.69c-1.57-.45-10.61-5.28-10.7-5.33h0l-.09.2.07.06Z"/><path class="cls-5" d="M108.28,172.16c-4.17-8.83-2.73-22.44-2.79-31.35-.71,1.35-1.5,2.69-2.35,4h.06a28.77,28.77,0,0,1-2.39,3.44h0a42,42,0,0,1-11.46,10.8c2.24,13.12-2.51,19,3.52,23.84,1.38,1.09,7,2.93,12.92,3.17a10,10,0,0,0-4.77-8.93,12.4,12.4,0,0,1,7.66,8.89,21.8,21.8,0,0,0,3.56-.5c.54-3.55-.73-6.82-4.69-9.86a12.31,12.31,0,0,1,7.62,8.88c.35-.16.7-.31,1-.49C116.32,176.93,112.43,174.81,108.28,172.16Z"/><path class="cls-5" d="M138.83,92.5c-.41-2-4.17-6.92-9.28-11.93A4.81,4.81,0,0,1,126.29,83c-7.12,1.07-7.5,3.3-13.68,3.3-.34,0-.71,0-1.11-.07.3,1.57.61,3.4.89,5.43,1.54,1,3.23,2,5.09,3,0,0-1.86,3.21-4.19,7a91.53,91.53,0,0,1-.77,16.74h0c-.16,1.07-.34,2.18-.54,3.3h0a69.83,69.83,0,0,1-3.58,12.68c.41.08,7.46,1.33,10.54-.41a14.28,14.28,0,0,0,2.23-15.86S140,98.43,138.83,92.5ZM121.2,118.56a35.58,35.58,0,0,1-2.81,4.08c3,6-1.49,8.62-1.49,8.62,2.47-3.51-.92-7.66-.92-7.66a21.45,21.45,0,0,1-4.46,1.92c1.92-1.07,9.55-7.36,9.55-7.36Z"/><path class="cls-5" d="M33,134.4a.86.86,0,0,0,.14.13c-.59-.57-1.17-1.14-1.76-1.68C31.9,133.37,32.46,133.86,33,134.4Z"/><path class="cls-5" d="M72,62.05C54.63,47.85,54.87,38.42,57.32,32.76c.16-.37.32-.71.49-1A9.05,9.05,0,0,1,62.94,27a14.53,14.53,0,0,1,6.16-.42c5.78.58,11.18,8.75,15.31,14.84s16.09,8,16.09,8a6.69,6.69,0,0,1,1.76-8c5.71-5.75,12.09-1.91,17.85-.64a13.22,13.22,0,0,1,3.73-1.88,11.65,11.65,0,0,0-8.17-5.46c1.45-13.35-2.59-21.47-6.14-22.72s-5.78,2.61-5.78,2.61A24.64,24.64,0,0,0,90.54,9.42S86.68-.33,79,0C70.94.33,66.18,14,64,22.29,58.65,25.16,43.1,33.72,43.26,36.8c.2,3.6,6,3.26,8.64,7.72-.08.3-.18.59-.26.88-2.54,1.82-13.29,9.77-12.51,13.67s8,3.1,11.15,5.34c.11,1.18.26,2.36.44,3.54-.06.35-.12.73-.18,1.12-1.61,1.45-3,2.84-3.91,3.79-7.41,7.54-14.75,19.7-14.75,21.07-.06,7.1,13.26,16.79,22.6,22.71v0c.09,0,9.13,4.88,10.7,5.33a8.41,8.41,0,0,1-4.66-.69s-2.23,4.46.38,7.23c0,0-4.2-.74-2.7-7.75L54.44,117a26.51,26.51,0,0,0-.15,4.37,12.77,12.77,0,0,1-2.31.26c-.16-.33-.33-.67-.51-1.06a35.86,35.86,0,0,0-3.1-5.46c-4.46-6.14-5.71-5.72-5.89-.61v0a8.06,8.06,0,0,1-1.29,4.1.7.7,0,0,1-.06.09c-1.28-.64-2.54-1.32-3.76-2-.41-.22-.83-.42-1.24-.62-.22-.36-.45-.76-.72-1.26a51.38,51.38,0,0,0-3.22-5.26c-6.4-9.2-3.34-1.63-5.73,2.83h0a4.62,4.62,0,0,0-.3.72,32.41,32.41,0,0,0-4.82-.29c-.37-.48-.87-1-1.42-1.64a17.79,17.79,0,0,0-2.36-2.23c-7.95-6.11-5-1.8-4.85,2.1l-.08,0a14.72,14.72,0,0,1,0,2.1c-.05.49-.09.85-.11,1.15a23.86,23.86,0,0,0-8.62,5,15.06,15.06,0,0,0-3.77,5.33,1.71,1.71,0,0,0,.56,2c1.63,1.3,3.64,0,5.09-.66,2.83-1.3,6.8-4.33,12.56-2.1a47.8,47.8,0,0,1,9.57,6,42.16,42.16,0,0,0-7.7-5.21,37,37,0,0,1,20.4,10c4.59,4.3,8.78,8.67,14,10.64a72,72,0,0,0-.19,10.29c0,.14,0,.28,0,.42.22,6.28.26,12.3-2.44,18.19C43.79,176.79,42.45,186,45.7,190a11.94,11.94,0,0,1,5.66-9.88,13.15,13.15,0,0,0-3,11.59l.1,0a30.51,30.51,0,0,0,6-.19c.35-4.57,1.7-8.51,5.77-10.83A11.48,11.48,0,0,0,57,191.05a30.74,30.74,0,0,0,11.12-4.84c3.62-3,.65-5.37.65-13.14A68.37,68.37,0,0,1,72,155.6c.24-.69.49-1.44.73-2.21.13-.44.27-.88.4-1.34,1.07-3.65,1.9-7.78,1.51-11.3a20.82,20.82,0,0,0,1.56-1.42c17.25-17.2,9.48-45.2-.22-64.42C73.36,69.68,72.12,65.46,72,62.05Zm32.64-37a8.28,8.28,0,0,1,1.33-2.18h0a12.64,12.64,0,0,1,4.63-4.35,101.59,101.59,0,0,0,1.49,13.59,85.68,85.68,0,0,0-9.84-1.54A33.52,33.52,0,0,1,104.59,25ZM77.36,11.23s7.07,3.42,11.82,18.08a100,100,0,0,0-16-1.43A38.57,38.57,0,0,0,77.36,11.23ZM68.94,77c.11,3.9-9.75,16.46-9.84,16.19s-.75-1.51-1.73-3.5C61.13,86.84,66.46,82.15,68.94,77ZM53.26,92.56s1.71-1,4-2.82c1.78,3.68,3.81,7.26,5.08,11.1a21.29,21.29,0,0,1,1.15,5.88c-.34-.47-.7-1-1.1-1.66C59.73,100.55,56.11,94.37,53.26,92.56Zm.89,28.86.14,0c.2,3.49,1.24,7.67,4.9,9.49,0,0,5.65.35,8.51-1.7,0,0,7.11-10.93,1.8-16.6a29.81,29.81,0,0,0-4-3.71c13.28,8.58,8.2,17.2,4.65,21.56-2.64,3.19-7.9,3.19-12.19,1C52.86,128.89,54.15,121.42,54.15,121.42Z"/><path class="cls-6" d="M110.56,18.48a12.64,12.64,0,0,0-4.63,4.35,2.16,2.16,0,0,1,.75-.17c1.36,0,2.45,1.45,2.45,3.25s-1.09,3.26-2.45,3.26-2.46-1.45-2.44-3.14a.89.89,0,0,1,0-.23,7.75,7.75,0,0,1,.35-.78,33.52,33.52,0,0,0-2.38,5.51,85.68,85.68,0,0,1,9.84,1.54A101.59,101.59,0,0,1,110.56,18.48Z"/><path class="cls-6" d="M77.36,11.23a38.57,38.57,0,0,1-4.2,16.65,100,100,0,0,1,16,1.43C84.43,14.65,77.36,11.23,77.36,11.23Zm2.9,15.11c-1.72,0-3.13-1.92-3.13-4.29s1.39-4.3,3.13-4.3,3.12,1.92,3.12,4.3S82,26.34,80.26,26.34Z"/><path class="cls-2" d="M80.26,17.75c-1.74,0-3.13,1.94-3.13,4.3s1.41,4.29,3.13,4.29,3.12-1.9,3.12-4.29S82,17.75,80.26,17.75Z"/><path class="cls-2" d="M104.24,26c0,1.69,1.08,3.14,2.44,3.14s2.45-1.45,2.45-3.26-1.09-3.25-2.45-3.25a2.16,2.16,0,0,0-.75.17h0A8.28,8.28,0,0,0,104.59,25a7.75,7.75,0,0,0-.35.78A.89.89,0,0,0,104.24,26Z"/><path class="cls-4" d="M114.08,59.88a24,24,0,0,1,9.59,16.54c2.63-1.22,4.49-3,3.38-5.3-1.29-2.7-7-7.62-9.31-9.76-1.53-1.36-2.61-2.27-2.61-2.27a6.68,6.68,0,0,1-1,.56C114.12,59.72,114.1,59.79,114.08,59.88Z"/><path class="cls-4" d="M86.7,50.89a72.39,72.39,0,0,1-14.43-14s.4-2.52,3.32-1.11h.29s-4.82-5.51-9.48-1c-3.86,3.75-1,10-1,10s.29-5.42,2.79-5c0,0,.77,4.76,5.46,11.4A33.27,33.27,0,0,1,86.7,50.89Z"/><path class="cls-7" d="M114.08,59.88c-.69,2.39-2.9,9-6,8.07-1.27-.38-.76-3.23-1.27-5.2-.17-.63-.43-1.44-.71-2.25a22.22,22.22,0,0,1-4-1A72,72,0,0,1,86.7,50.89a33.27,33.27,0,0,0-13,.24A63,63,0,0,0,90,66.66c19.7,13.39,25.21,12.2,29.5,11.16a24,24,0,0,0,4.14-1.4A24,24,0,0,0,114.08,59.88Z"/><path class="cls-8" d="M108.06,68c3.12.94,5.33-5.68,6-8.07,0-.09,0-.16.06-.23a14.08,14.08,0,0,1-8.06.85c.28.81.54,1.62.71,2.25C107.3,64.72,106.79,67.57,108.06,68Z"/><path class="cls-8" d="M125.37,58.34c.35.65.67,1.29.9,1.8.82,1.86.78,4.76,2.1,4.91,3.27.41,4.35-6.68,4.62-9.06a19.31,19.31,0,0,1-5.67,2.12C126.67,58.21,126,58.26,125.37,58.34Z"/><path class="cls-9" d="M112.76,94.59c0-.31-.07-.59-.11-.89,0,.14,0,.29,0,.43S112.74,94.44,112.76,94.59Z"/><path class="cls-9" d="M40.61,134.56a37,37,0,0,0-20.4-10,42.16,42.16,0,0,1,7.7,5.21c1.15,1,2.3,2,3.45,3,.59.54,1.17,1.11,1.76,1.68s.92.9,1.38,1.37a21.08,21.08,0,0,1,2.36-2.17,16.75,16.75,0,0,0-.44,4.17c2.08,2.21,4.16,4.55,6.23,6.95A29.62,29.62,0,0,1,45,141.63a8.68,8.68,0,0,0-.56,5.32A55.68,55.68,0,0,0,53,154.89l-1.79-1.43a29.71,29.71,0,0,1,2.88-5.85c-1,1.77-.76,4.94-.13,8l.45.31c0-.14,0-.28,0-.42a72,72,0,0,1,.19-10.29C49.39,143.23,45.2,138.86,40.61,134.56Z"/><path class="cls-9" d="M112.76,94.81c.08.73.15,1.45.22,2.21-.06-.74-.12-1.5-.2-2.2Z"/><path class="cls-9" d="M113,97l0,.32h0Z"/><path class="cls-9" d="M72.75,153.39c-.24.77-.49,1.52-.73,2.21a63.56,63.56,0,0,0-1.89,7.17A27.11,27.11,0,0,0,81,162.52,47,47,0,0,1,72.75,153.39Z"/><path class="cls-9" d="M137.25,46.15c-.41-6-7.11-9.25-13.41-7.23a13.22,13.22,0,0,0-3.73,1.88c-5.76-1.27-12.14-5.11-17.85.64a6.69,6.69,0,0,0-1.76,8s-12-1.92-16.09-8S74.88,27.16,69.1,26.58a14.53,14.53,0,0,0-6.16.42,9.05,9.05,0,0,0-5.13,4.72c-.17.33-.33.67-.49,1C54.87,38.42,54.63,47.85,72,62.05c.17,3.41,1.41,7.63,4,12.86,9.7,19.22,17.47,47.22.22,64.42a20.82,20.82,0,0,1-1.56,1.42c.39,3.52-.44,7.65-1.51,11.3a39.31,39.31,0,0,0,12.69,8.84,27.85,27.85,0,0,0,3.48-1.84,42,42,0,0,0,11.46-10.8,28.27,28.27,0,0,1-18.07-11.8,40.65,40.65,0,0,0,20.43,8.36c.85-1.31,1.64-2.65,2.35-4a58.75,58.75,0,0,0,2.92-6.38A69.83,69.83,0,0,0,112,121.75a41.19,41.19,0,0,0-23.79,0s8.74-7,24.32-3.31a91.53,91.53,0,0,0,.77-16.74c-.06-1.52-.16-3-.28-4.36a40.46,40.46,0,0,0-25.43,3.79s7.19-6.74,21.15-7.55C101,90.77,93.27,85.14,86.64,79A39.71,39.71,0,0,0,82,81.47,12.82,12.82,0,0,1,85.61,78,113.3,113.3,0,0,1,72.07,62.58c0-.15,0-.31,0-.46,1.14.93,2.33,1.88,3.62,2.84,20.69,15.56,30.59,20.58,35.8,21.21.46,2.43.85,4.87,1.15,7.33h0q-.12-1-.24-1.89c-.28-2-.59-3.86-.89-5.43.4,0,.77.07,1.11.07,6.18,0,6.56-2.23,13.68-3.3a4.81,4.81,0,0,0,3.26-2.38,8.59,8.59,0,0,0-.85-9.67,46,46,0,0,0-12-10.58s.35.44,1,1c2.33,2.14,8,7.06,9.31,9.76,1.11,2.33-.75,4.08-3.38,5.3a24,24,0,0,1-4.14,1.4c-4.29,1-9.8,2.23-29.5-11.16A63,63,0,0,1,73.67,51.13c-4.69-6.64-5.46-11.4-5.46-11.4-2.5-.38-2.79,5-2.79,5s-2.88-6.27,1-10c4.66-4.46,9.48,1,9.48,1h-.29c-2.92-1.41-3.32,1.11-3.32,1.11a72.39,72.39,0,0,0,14.43,14A72,72,0,0,0,102,59.47a22.22,22.22,0,0,0,4,1,14.08,14.08,0,0,0,8.06-.85,6.68,6.68,0,0,0,1-.56,81.47,81.47,0,0,0,10.24-.75c.65-.08,1.3-.13,1.95-.23A19.31,19.31,0,0,0,133,56C135.5,54.41,137.63,51.59,137.25,46.15ZM107.18,49.6a3.17,3.17,0,0,1,1.48-4.23c2-.62,3.55,2.08.92,3.24-.38,1,.22,2.09,1.83,2.47A3.16,3.16,0,0,1,107.18,49.6ZM129,49.25c1.34-.31,1.83-1.2,1.54-2-2.18-1-.91-3.21.74-2.67h0C133.48,45.33,133.25,50.12,129,49.25Z"/><path class="cls-3" d="M108.66,45.37a3.17,3.17,0,1,0,2.75,5.71c-1.61-.38-2.21-1.47-1.83-2.47C112.21,47.45,110.67,44.75,108.66,45.37Z"/><path class="cls-3" d="M129,49.25c4.24.87,4.47-3.92,2.23-4.7h0c-1.65-.54-2.92,1.69-.74,2.67C130.84,48.05,130.35,48.94,129,49.25Z"/></g></g></g></svg>